<svg width="24" height="24" viewBox="0 0 24 24" fill="none" xmlns="http://www.w3.org/2000/svg">
<path d="M5.74041 21C5.51892 21 5.29392 20.9455 5.0865 20.833C4.90193 20.7311 4.74548 20.5922 4.62068 20.4199C4.29373 19.9629 4.12146 19.425 4.12146 18.8643V5.68594C4.12146 4.2041 5.32556 3 6.80564 3H17.1926C18.6726 3 19.8785 4.2041 19.8785 5.68594V18.8643C19.8785 19.4092 19.715 19.9348 19.4056 20.383C19.3951 20.3988 19.3845 20.4129 19.374 20.427C19.0927 20.8031 18.6427 21.0088 18.1699 20.9754C17.69 20.942 17.2664 20.6695 17.0361 20.2477L16.1994 18.7148L15.2888 20.2969C15.0568 20.71 14.6244 20.9771 14.1603 20.9947C14.1234 20.9965 14.0865 20.9965 14.0513 20.9947C13.5873 20.9771 13.1549 20.71 12.9228 20.2969L12 18.6973L11.0877 20.2863C10.8451 20.717 10.3933 20.9859 9.90818 20.9877C9.88884 20.9877 9.86951 20.9877 9.85017 20.9859C9.38611 20.9684 8.95369 20.7012 8.72166 20.2863L7.81814 18.7148L6.96384 20.2723C6.71072 20.7363 6.23259 21 5.74041 21ZM6.80564 4.13027C5.94783 4.13027 5.25173 4.82812 5.25173 5.68418V18.8625C5.25173 19.1859 5.35193 19.4971 5.54001 19.7607C5.56462 19.7941 5.59275 19.8205 5.62791 19.8398C5.74568 19.9049 5.90388 19.8539 5.97244 19.7273L7.25388 17.3947C7.37869 17.1662 7.63533 17.0361 7.89021 17.0678C7.91658 17.0713 7.9447 17.0766 7.97107 17.0836C8.13279 17.1258 8.27517 17.2365 8.35779 17.3842L9.70603 19.7326C9.74646 19.8064 9.81853 19.8539 9.89236 19.8557H9.90291C9.98201 19.8557 10.0594 19.8064 10.1015 19.7309L10.1051 19.7238L11.4498 17.3824C11.5342 17.2348 11.6748 17.1258 11.8365 17.0818C11.9437 17.0537 12.0562 17.0537 12.1617 17.0818C12.3234 17.124 12.464 17.233 12.5484 17.3807L13.9072 19.7396C13.9476 19.8135 14.0197 19.8592 14.0935 19.8627H14.1164C14.1902 19.8592 14.2623 19.8135 14.3027 19.7396L14.3062 19.7326L15.6615 17.3807C15.7459 17.233 15.8865 17.124 16.0482 17.0818C16.0746 17.0748 16.101 17.0695 16.1273 17.066C16.384 17.0326 16.6406 17.1645 16.7672 17.393L18.0275 19.7027C18.0926 19.8205 18.2033 19.8416 18.249 19.8434C18.3 19.8469 18.3967 19.8398 18.467 19.7467C18.4687 19.7432 18.4722 19.7396 18.474 19.7379C18.6533 19.4777 18.7482 19.1754 18.7482 18.8607V5.68594C18.7482 4.82813 18.0504 4.13203 17.1943 4.13203H6.80564V4.13027Z" fill="black"/>
<path d="M12.5766 7.46658H8.04846C7.73909 7.46658 7.48596 7.21345 7.48596 6.90408V6.8988C7.48596 6.58943 7.73909 6.3363 8.04846 6.3363H12.5766C12.886 6.3363 13.1391 6.58943 13.1391 6.8988V6.90408C13.1391 7.21345 12.886 7.46658 12.5766 7.46658ZM15.9797 10.8697H8.04846C7.73909 10.8697 7.48596 10.6166 7.48596 10.3072V10.3019C7.48596 9.99255 7.73909 9.73943 8.04846 9.73943H15.9797C16.2891 9.73943 16.5422 9.99255 16.5422 10.3019V10.3072C16.5422 10.6166 16.2891 10.8697 15.9797 10.8697ZM12.5766 14.3045H8.04846C7.73909 14.3045 7.48596 14.0513 7.48596 13.742V13.7367C7.48596 13.4273 7.73909 13.1742 8.04846 13.1742H12.5766C12.886 13.1742 13.1391 13.4273 13.1391 13.7367V13.742C13.1391 14.0513 12.886 14.3045 12.5766 14.3045Z" fill="black"/>
</svg>
