<svg width="24" height="24" viewBox="0 0 24 24" fill="none" xmlns="http://www.w3.org/2000/svg">
<path d="M17.0625 21.5H6.9375C6.41973 21.5 6 21.791 6 22.15C6 22.509 6.41973 22.8 6.9375 22.8H17.0625C17.5803 22.8 18 22.509 18 22.15C18 21.791 17.5803 21.5 17.0625 21.5Z" fill="#00AA5B"/>
<path d="M16.4476 4H7.5524C5.59046 4 4 5.6823 4 7.75751V15.2425C4 17.3177 5.59046 19 7.5524 19H16.4476C18.4095 19 20 17.3177 20 15.2425V7.75751C20 5.6823 18.4095 4 16.4476 4Z" fill="#00AA5B" stroke="#00AA5B" stroke-width="1.6"/>
<path d="M10.5 14.2876V9.57041C10.5 9.15243 10.9351 8.87675 11.313 9.05527L16.2568 11.3906C16.6901 11.5953 16.6925 12.211 16.2608 12.419L11.317 14.8008C10.9387 14.9831 10.5 14.7074 10.5 14.2876Z" stroke="white" stroke-width="1.3"/>
<rect x="8" y="9" width="1" height="6" rx="0.5" fill="white"/>
</svg>
