<svg width="24" height="24" viewBox="0 0 24 24" fill="none" xmlns="http://www.w3.org/2000/svg">
<path d="M14.8216 20.5H8.66871C8.35407 20.5 8.099 20.791 8.099 21.15C8.099 21.509 8.35407 21.8 8.66871 21.8H14.8216C15.1363 21.8 15.3914 21.509 15.3914 21.15C15.3914 20.791 15.1363 20.5 14.8216 20.5Z" fill="black"/>
<path d="M16.4476 3H7.5524C5.59046 3 4 4.6823 4 6.75751V14.2425C4 16.3177 5.59046 18 7.5524 18H16.4476C18.4095 18 20 16.3177 20 14.2425V6.75751C20 4.6823 18.4095 3 16.4476 3Z" stroke="black" stroke-width="1.3"/>
<path d="M9.43774 13.0886V8.37149C9.43774 7.95352 9.87286 7.67784 10.2508 7.85636L15.1945 10.1917C15.6279 10.3964 15.6302 11.0121 15.1985 11.2201L10.2547 13.6019C9.87648 13.7842 9.43774 13.5085 9.43774 13.0886Z" stroke="black" stroke-width="1.3"/>
</svg>
