<svg width="24" height="24" viewBox="0 0 24 24" fill="none" xmlns="http://www.w3.org/2000/svg">
<path d="M18.1867 9.90042V9.25453C18.1867 5.70819 15.4168 2.83331 12 2.83331C8.58318 2.83331 5.8133 5.70819 5.8133 9.25453V9.90042C5.8133 10.6756 5.59224 11.4333 5.17798 12.0783L4.16283 13.6587C3.23559 15.1023 3.94346 17.0645 5.55616 17.521C9.77501 18.7152 14.225 18.7152 18.4438 17.521C20.0566 17.0645 20.7644 15.1023 19.8371 13.6587L18.822 12.0783C18.4078 11.4333 18.1867 10.6756 18.1867 9.90042Z" stroke="black" stroke-width="1.5"/>
<path d="M7.875 18.4167C8.47544 20.0188 10.0956 21.1667 12 21.1667C13.9044 21.1667 15.5246 20.0188 16.125 18.4167" stroke="black" stroke-width="1.5" stroke-linecap="round"/>
</svg>
