<svg width="24" height="24" viewBox="0 0 24 24" fill="none" xmlns="http://www.w3.org/2000/svg">
<g clip-path="url(#clip0_58_64)">
<path d="M20.35 6.14358V11.9999C20.35 16.0592 17.0593 19.3499 13 19.3499H7C5.14985 19.3499 3.65 17.8501 3.65 15.9999V6.14359C3.65 3.62528 6.33618 1.99325 8.60504 3.1389C9.39794 3.53927 10.1327 3.90286 10.6952 4.16724C10.9755 4.299 11.2198 4.40935 11.4101 4.48792C11.5045 4.52688 11.594 4.56159 11.6725 4.58764L11.6757 4.58871C11.7262 4.60551 11.8597 4.64995 12 4.64995C12.1403 4.64995 12.2738 4.60551 12.3243 4.58871L12.3275 4.58764C12.406 4.56159 12.4955 4.52688 12.5899 4.48792C12.7802 4.40935 13.0245 4.299 13.3048 4.16724C13.8673 3.90286 14.6021 3.53927 15.395 3.1389C17.6638 1.99325 20.35 3.62528 20.35 6.14358Z" stroke="black" stroke-width="1.3"/>
<path fill-rule="evenodd" clip-rule="evenodd" d="M17.1586 8.15865C17.3701 8.37018 17.3701 8.94713 17.1586 9.15867L12.1586 13.6587C11.7356 14.0817 11.0337 13.6587 11.0337 13.6587L8.15867 11.1587C7.94714 10.9472 7.94709 10.3702 8.15863 10.1587C8.37017 9.94717 8.94709 9.94717 9.15863 10.1587L11.6586 12.1587L16.1586 8.15865C16.3701 7.94712 16.9471 7.94712 17.1586 8.15865Z" fill="black"/>
</g>
<defs>
<clipPath id="clip0_58_64">
<rect width="24" height="24" fill="white"/>
</clipPath>
</defs>
</svg>
