<svg width="24" height="24" viewBox="0 0 24 24" fill="none" xmlns="http://www.w3.org/2000/svg">
<g clip-path="url(#clip0_58_94)">
<path d="M4.5 6L8 5L18.5 4.5L20.5 10.5L17.5 16L12 19.5L7 16.5L4 10.5L4.5 6Z" fill="#00AA5B"/>
<path d="M15.1481 5.33061C16.202 5.33011 17.213 5.74817 17.9588 6.49287C18.7045 7.23757 19.124 8.24795 19.125 9.30186C19.125 10.8244 18.465 13.2206 15.3263 15.99C14.2927 16.891 13.1794 17.6962 12 18.3956C10.8226 17.6959 9.71116 16.8907 8.67938 15.99C5.54063 13.2206 4.875 10.8244 4.875 9.30186C4.87436 8.58882 5.06572 7.88876 5.42897 7.27519C5.79222 6.66161 6.31398 6.15716 6.93945 5.81479C7.56491 5.47242 8.27102 5.30477 8.98364 5.32944C9.69625 5.35411 10.3891 5.57019 10.9894 5.95499L12 6.60374L13.0106 5.95499C13.6487 5.54669 14.3906 5.33 15.1481 5.33061ZM15.1481 3.45561C14.0323 3.45475 12.9396 3.77428 12 4.37624C11.1164 3.81015 10.0967 3.49233 9.04797 3.45612C7.99921 3.41991 6.96004 3.66665 6.0395 4.17046C5.11897 4.67426 4.351 5.41654 3.8162 6.31942C3.28139 7.2223 2.99947 8.25248 3 9.30186C3 16.0519 12 20.5519 12 20.5519C12 20.5519 21 16.0519 21 9.30186C21 8.53365 20.8486 7.77297 20.5544 7.0633C20.2603 6.35363 19.8292 5.7089 19.2857 5.16595C18.7422 4.623 18.0971 4.19249 17.3871 3.89902C16.6772 3.60554 15.9163 3.45487 15.1481 3.45561Z" fill="#00AA5B"/>
<circle cx="16.5" cy="8.5" r="2" fill="white"/>
<path d="M19.75 18H22.25" stroke="#00AA5B" stroke-width="1.5" stroke-linecap="round" stroke-linejoin="round"/>
<path d="M21 16.7573V19.2625" stroke="#00AA5B" stroke-width="1.5" stroke-linecap="round" stroke-linejoin="round"/>
<path d="M1.75 18H4.25" stroke="#00AA5B" stroke-width="1.5" stroke-linecap="round" stroke-linejoin="round"/>
<path d="M3 16.7573V19.2625" stroke="#00AA5B" stroke-width="1.5" stroke-linecap="round" stroke-linejoin="round"/>
</g>
<defs>
<clipPath id="clip0_58_94">
<rect width="24" height="24" fill="white"/>
</clipPath>
</defs>
</svg>
