<svg width="24" height="24" viewBox="0 0 24 24" fill="none" xmlns="http://www.w3.org/2000/svg">
<path d="M4.5 4.5H8L12 5.5L16.5 4L20 4.5V11L19 17.5L16 20L4.5 19.5V4.5Z" fill="#8036D7"/>
<path d="M20.2 7.14358V12.9999C20.2 16.9764 16.9764 20.1999 13 20.1999H7C5.23269 20.1999 3.8 18.7673 3.8 16.9999V7.14359C3.8 4.73974 6.36592 3.17631 8.53743 4.2728C9.33069 4.67335 10.067 5.0377 10.6314 5.30299C10.9124 5.43511 11.1593 5.54664 11.3528 5.62656C11.4487 5.66613 11.5419 5.70234 11.6252 5.72999C11.6267 5.7305 11.6284 5.73106 11.6302 5.73165C11.6814 5.74877 11.8348 5.79995 12 5.79995C12.1652 5.79995 12.3186 5.74877 12.3698 5.73165C12.3716 5.73106 12.3733 5.7305 12.3748 5.72999C12.4581 5.70234 12.5513 5.66613 12.6472 5.62656C12.8407 5.54664 13.0876 5.43511 13.3686 5.30299C13.9331 5.0377 14.6693 4.67335 15.4626 4.27279C17.6341 3.17631 20.2 4.73974 20.2 7.14358Z" stroke="#8036D7" stroke-width="1.6"/>
<path fill-rule="evenodd" clip-rule="evenodd" d="M17.1586 9.15865C17.3701 9.37018 17.3701 9.94713 17.1586 10.1587L12.1586 14.6587C11.7356 15.0817 11.0337 14.6587 11.0337 14.6587L8.15867 12.1587C7.94714 11.9472 7.94709 11.3702 8.15863 11.1587C8.37017 10.9472 8.94709 10.9472 9.15863 11.1587L11.6586 13.1587L16.1586 9.15865C16.3701 8.94712 16.9471 8.94712 17.1586 9.15865Z" fill="#FBBE25"/>
</svg>
