<svg width="24" height="24" viewBox="0 0 24 24" fill="none" xmlns="http://www.w3.org/2000/svg">
<path d="M2.02563 8.846C2.02563 13.125 5.61158 17.3337 11.2667 20.9498C11.4877 21.0804 11.789 21.221 12 21.221C12.2109 21.221 12.5123 21.0804 12.7232 20.9498C18.3884 17.3337 21.9743 13.125 21.9743 8.846C21.9743 5.29022 19.5335 2.77905 16.279 2.77905C14.4107 2.77905 12.904 3.66298 12 5.01898C11.096 3.67301 9.57921 2.77905 7.72096 2.77905C4.46652 2.77905 2.02563 5.29022 2.02563 8.846ZM3.64285 8.846C3.64285 6.17415 5.37051 4.39622 7.70086 4.39622C9.58928 4.39622 10.664 5.57145 11.3169 6.57594C11.5881 6.97772 11.7589 7.08821 12 7.08821C12.2411 7.08821 12.3917 6.96765 12.683 6.57594C13.3661 5.59155 14.4207 4.39622 16.2991 4.39622C18.6294 4.39622 20.3571 6.17415 20.3571 8.846C20.3571 12.5826 16.4096 16.6105 12.2009 19.4029C12.1004 19.4732 12.0401 19.5235 12 19.5235C11.9598 19.5235 11.8895 19.4732 11.789 19.4029C7.59038 16.6105 3.64285 12.5826 3.64285 8.846Z" fill="black"/>
</svg>
