<svg width="24" height="24" viewBox="0 0 24 24" fill="none" xmlns="http://www.w3.org/2000/svg">
<path d="M16.7028 21H6.63411C4.99797 21 3.50565 19.7414 3.23596 18.1322L2.04031 10.9674C1.84254 9.85262 2.39092 8.42325 3.28091 7.71305L9.51086 2.7237C10.7155 1.7528 12.6124 1.76179 13.826 2.73269L20.056 7.71305C20.937 8.42325 21.4763 9.85262 21.2965 10.9674L20.1009 18.1233C19.8312 19.7145 18.3029 21 16.7028 21ZM11.6595 3.35298C11.183 3.35298 10.7065 3.49682 10.3559 3.77551L4.12595 8.77385C3.62252 9.17839 3.26293 10.1133 3.37081 10.7516L4.56645 17.9075C4.72827 18.8514 5.6722 19.6515 6.63411 19.6515H16.7028C17.6647 19.6515 18.6086 18.8514 18.7704 17.8985L19.9661 10.7426C20.0649 10.1133 19.7054 9.16041 19.2109 8.76486L12.981 3.7845C12.6214 3.49682 12.1359 3.35298 11.6595 3.35298Z" fill="black"/>
<path d="M10 12.7H14C14.718 12.7 15.3 13.282 15.3 14V20.3H8.7V14C8.7 13.282 9.28203 12.7 10 12.7Z" stroke="black" stroke-width="1.4"/>
</svg>
