<svg width="12" height="12" viewBox="0 0 12 12" fill="none" xmlns="http://www.w3.org/2000/svg">
<path fill-rule="evenodd" clip-rule="evenodd" d="M4.44564 10.5394L4.47305 10.5658L4.47519 10.5679C4.97731 11.049 5.46415 11.3788 6.0148 11.3725C6.56295 11.3662 7.0478 11.0278 7.5496 10.5392C8.23735 9.87275 9.12725 8.97385 9.77015 7.90745C10.4155 6.83705 10.8319 5.5646 10.5186 4.16798C9.45985 -0.552064 2.54566 -0.557594 1.48138 4.16296C1.17691 5.52 1.56157 6.76135 2.17499 7.8134C2.78611 8.86155 3.6412 9.75145 4.32697 10.4236C4.36693 10.4627 4.40636 10.5012 4.44517 10.5389L4.44564 10.5394ZM6 3.12506C5.10255 3.12506 4.375 3.8526 4.375 4.75006C4.375 5.6475 5.10255 6.37505 6 6.37505C6.89745 6.37505 7.625 5.6475 7.625 4.75006C7.625 3.8526 6.89745 3.12506 6 3.12506Z" fill="black"/>
</svg>
