<svg width="37" height="26" viewBox="0 0 37 26" fill="none" xmlns="http://www.w3.org/2000/svg">
<path d="M0 6.64372V20.9347C0 21.0066 0.00768684 21.0782 0.0244705 21.148C0.137905 21.6203 0.643709 23.564 1.5 24.5428C2.25649 25.4076 3.77305 25.5427 4.53728 25.5526C4.79889 25.556 5 25.3406 5 25.0789V22.0428C5 21.4905 5.44069 21.0428 5.99297 21.0428H27C36.3192 21.0428 36.5194 14.5293 36.5035 13.6424C36.5023 13.5743 36.5045 13.5107 36.513 13.4432C36.5813 12.8986 36.8826 10.2455 36.5 8.54282C35.9849 6.25077 33.6931 3.28956 33.5114 3.05739C33.5029 3.04653 33.4969 3.03924 33.4878 3.0289C33.2966 2.81214 30.8785 0.135288 28 0.0428231C25.121 -0.0496602 7.96675 0.0353646 6.58801 0.0423719C6.52266 0.0427041 6.46934 0.0490228 6.40556 0.0632565C5.87243 0.182231 3.21987 0.822949 2 2.04282C0.781979 3.26084 0.141356 5.90719 0.0209794 6.44594C0.00634918 6.51141 0 6.57662 0 6.64372Z" fill="#F94D63"/>
</svg>
