<svg width="24" height="24" viewBox="0 0 24 24" fill="none" xmlns="http://www.w3.org/2000/svg">
<path d="M15.1481 4.87797C16.202 4.87748 17.213 5.29554 17.9588 6.04024C18.7045 6.78494 19.124 7.79531 19.125 8.84923C19.125 10.3717 18.465 12.768 15.3263 15.5373C14.2927 16.4384 13.1794 17.2435 12 17.943C10.8226 17.2433 9.71116 16.4381 8.67938 15.5373C5.54063 12.768 4.875 10.3717 4.875 8.84923C4.87436 8.13618 5.06572 7.43612 5.42897 6.82255C5.79222 6.20898 6.31398 5.70452 6.93945 5.36215C7.56491 5.01979 8.27103 4.85214 8.98364 4.8768C9.69625 4.90147 10.3891 5.11755 10.9894 5.50235L12 6.1511L13.0106 5.50235C13.6487 5.09406 14.3906 4.87736 15.1481 4.87797ZM15.1481 3.00297C14.0323 3.00211 12.9396 3.32165 12 3.9236C11.1164 3.35751 10.0967 3.03969 9.04797 3.00348C7.99921 2.96727 6.96004 3.21402 6.0395 3.71782C5.11897 4.22162 4.351 4.96391 3.8162 5.86678C3.28139 6.76966 2.99947 7.79984 3 8.84923C3 15.5992 12 20.0992 12 20.0992C12 20.0992 21 15.5992 21 8.84923C21 8.08101 20.8486 7.32033 20.5544 6.61066C20.2603 5.901 19.8292 5.25626 19.2857 4.71331C18.7422 4.17036 18.0971 3.73985 17.3871 3.44638C16.6772 3.15291 15.9163 3.00224 15.1481 3.00297Z" fill="black"/>
</svg>
