<svg width="24" height="24" viewBox="0 0 24 24" fill="none" xmlns="http://www.w3.org/2000/svg">
<path d="M5 4.125L19.0625 3.5625L19.625 19.875H17.9375L16.25 18.1875L15.125 19.875H14L12.3125 18.1875L10.625 19.875L10 20H9L7.8125 18.1875L7.25 19.875H5V4.125Z" fill="#00AA5B"/>
<path d="M5.61895 21C5.39746 21 5.17246 20.9455 4.96504 20.833C4.78047 20.7311 4.62402 20.5922 4.49922 20.4199C4.17227 19.9629 4 19.425 4 18.8643V5.68594C4 4.2041 5.2041 3 6.68418 3H17.0711C18.5512 3 19.757 4.2041 19.757 5.68594V18.8643C19.757 19.4092 19.5936 19.9348 19.2842 20.383C19.2736 20.3988 19.2631 20.4129 19.2525 20.427C18.9713 20.8031 18.5213 21.0088 18.0484 20.9754C17.5686 20.942 17.1449 20.6695 16.9146 20.2477L16.0779 18.7148L15.1674 20.2969C14.9354 20.71 14.5029 20.9771 14.0389 20.9947C14.002 20.9965 13.965 20.9965 13.9299 20.9947C13.4658 20.9771 13.0334 20.71 12.8014 20.2969L11.8785 18.6973L10.9662 20.2863C10.7236 20.717 10.2719 20.9859 9.78672 20.9877C9.76738 20.9877 9.74805 20.9877 9.72871 20.9859C9.26465 20.9684 8.83223 20.7012 8.6002 20.2863L7.69668 18.7148L6.84238 20.2723C6.58926 20.7363 6.11113 21 5.61895 21ZM6.68418 4.13027C5.82637 4.13027 5.13027 4.82812 5.13027 5.68418V18.8625C5.13027 19.1859 5.23047 19.4971 5.41855 19.7607C5.44316 19.7941 5.47129 19.8205 5.50645 19.8398C5.62422 19.9049 5.78242 19.8539 5.85098 19.7273L7.13242 17.3947C7.25723 17.1662 7.51387 17.0361 7.76875 17.0678C7.79512 17.0713 7.82324 17.0766 7.84961 17.0836C8.01133 17.1258 8.15371 17.2365 8.23633 17.3842L9.58457 19.7326C9.625 19.8064 9.69707 19.8539 9.7709 19.8557H9.78145C9.86055 19.8557 9.93789 19.8064 9.98008 19.7309L9.98359 19.7238L11.3283 17.3824C11.4127 17.2348 11.5533 17.1258 11.715 17.0818C11.8223 17.0537 11.9348 17.0537 12.0402 17.0818C12.202 17.124 12.3426 17.233 12.427 17.3807L13.7857 19.7396C13.8262 19.8135 13.8982 19.8592 13.9721 19.8627H13.9949C14.0688 19.8592 14.1408 19.8135 14.1813 19.7396L14.1848 19.7326L15.54 17.3807C15.6244 17.233 15.765 17.124 15.9268 17.0818C15.9531 17.0748 15.9795 17.0695 16.0059 17.066C16.2625 17.0326 16.5191 17.1645 16.6457 17.393L17.9061 19.7027C17.9711 19.8205 18.0818 19.8416 18.1275 19.8434C18.1785 19.8469 18.2752 19.8398 18.3455 19.7467C18.3473 19.7432 18.3508 19.7396 18.3525 19.7379C18.5318 19.4777 18.6268 19.1754 18.6268 18.8607V5.68594C18.6268 4.82813 17.9289 4.13203 17.0729 4.13203H6.68418V4.13027Z" fill="#00AA5B"/>
<path d="M12.0906 7.46658H7.5625C7.25313 7.46658 7 7.21345 7 6.90408V6.8988C7 6.58943 7.25313 6.3363 7.5625 6.3363H12.0906C12.4 6.3363 12.6531 6.58943 12.6531 6.8988V6.90408C12.6531 7.21345 12.4 7.46658 12.0906 7.46658ZM15.4938 10.8697H7.5625C7.25313 10.8697 7 10.6166 7 10.3072V10.3019C7 9.99255 7.25313 9.73943 7.5625 9.73943H15.4938C15.8031 9.73943 16.0563 9.99255 16.0563 10.3019V10.3072C16.0563 10.6166 15.8031 10.8697 15.4938 10.8697ZM12.0906 14.3045H7.5625C7.25313 14.3045 7 14.0513 7 13.742V13.7367C7 13.4273 7.25313 13.1742 7.5625 13.1742H12.0906C12.4 13.1742 12.6531 13.4273 12.6531 13.7367V13.742C12.6531 14.0513 12.4 14.3045 12.0906 14.3045Z" fill="white"/>
</svg>
