<svg width="24" height="24" viewBox="0 0 24 24" fill="none" xmlns="http://www.w3.org/2000/svg">
<path d="M7.5 18C8.32843 18 9 18.6716 9 19.5C9 20.3284 8.32843 21 7.5 21C6.67157 21 6 20.3284 6 19.5C6 18.6716 6.67157 18 7.5 18Z" stroke="black"/>
<path d="M16.5 18.0001C17.3284 18.0001 18 18.6716 18 19.5001C18 20.3285 17.3284 21.0001 16.5 21.0001C15.6716 21.0001 15 20.3285 15 19.5001C15 18.6716 15.6716 18.0001 16.5 18.0001Z" stroke="black"/>
<path d="M2.24872 2.29248C1.85795 2.15509 1.4298 2.3605 1.29242 2.75126C1.15503 3.14203 1.36044 3.57018 1.7512 3.70756L2.24872 2.29248ZM20.6578 9.88277L21.3923 10.0342L21.3933 10.0296L20.6578 9.88277ZM5.70804 9.76002V7.03838H4.20804V9.76002H5.70804ZM2.50993 2.38431L2.24872 2.29248L1.7512 3.70756L2.01241 3.7994L2.50993 2.38431ZM10.9375 16.25H16.2404V14.75H10.9375V16.25ZM5.70804 7.03838C5.70804 6.33122 5.70906 5.74112 5.65715 5.26159C5.60342 4.76521 5.48701 4.31249 5.20503 3.89985L3.96657 4.74615C4.05683 4.87824 4.12653 5.05966 4.16586 5.42301C4.20702 5.80322 4.20804 6.29843 4.20804 7.03838H5.70804ZM2.01241 3.7994C2.68002 4.03412 3.11877 4.18967 3.44162 4.34808C3.74484 4.49686 3.87851 4.61729 3.96657 4.74615L5.20503 3.89985C4.92085 3.48399 4.543 3.21765 4.10237 3.00145C3.68135 2.79487 3.14391 2.60721 2.50993 2.38431L2.01241 3.7994ZM4.20804 9.76002C4.20804 11.2125 4.22167 12.2599 4.35872 13.0601C4.50504 13.9144 4.79718 14.5261 5.34341 15.1022L6.43194 14.0702C6.11178 13.7325 5.93909 13.4018 5.83719 12.8069C5.72603 12.1578 5.70804 11.249 5.70804 9.76002H4.20804ZM10.9375 14.75C9.52065 14.75 8.53759 14.7482 7.79692 14.6432C7.08211 14.5418 6.70448 14.3576 6.43194 14.0702L5.34341 15.1022C5.93727 15.7286 6.69008 16.0013 7.58632 16.1283C8.4567 16.2518 9.56531 16.25 10.9375 16.25V14.75ZM4.95804 6.87002H17.0888V5.37002H4.95804V6.87002ZM19.9232 9.73137L19.4235 12.1561L20.8926 12.4589L21.3923 10.0342L19.9232 9.73137ZM17.0888 6.87002C17.9452 6.87002 18.6989 6.87102 19.2937 6.93751C19.5893 6.97055 19.8105 7.01645 19.9659 7.07107C20.1273 7.12778 20.153 7.17129 20.1401 7.15441L21.329 6.2398C21.094 5.93438 20.7636 5.76147 20.4632 5.65589C20.1567 5.5482 19.8101 5.48589 19.4604 5.4468C18.7646 5.36902 17.9174 5.37002 17.0888 5.37002V6.87002ZM21.3933 10.0296C21.5625 9.18169 21.7062 8.47026 21.7414 7.9004C21.7775 7.3142 21.7108 6.73619 21.329 6.2398L20.1401 7.15441C20.2021 7.2351 20.2706 7.38039 20.2442 7.80799C20.2168 8.25193 20.1002 8.8448 19.9223 9.73597L21.3933 10.0296ZM16.2404 16.25C17.0021 16.25 17.6413 16.2513 18.1566 16.1882C18.6923 16.1227 19.1809 15.9794 19.6074 15.6318L18.6598 14.469C18.5346 14.571 18.3571 14.6525 17.9744 14.6994C17.5712 14.7487 17.0397 14.75 16.2404 14.75V16.25ZM19.4235 12.1561C19.2621 12.9389 19.1535 13.4593 19.0238 13.8442C18.9007 14.2095 18.785 14.367 18.6598 14.469L19.6074 15.6318C20.0339 15.2842 20.2729 14.8346 20.4453 14.3232C20.6111 13.8312 20.7388 13.2049 20.8926 12.4589L19.4235 12.1561Z" fill="black"/>
</svg>
